<svg id="Layer_1" data-name="Layer 1" xmlns="http://www.w3.org/2000/svg" viewBox="0 0 792 612"><defs><style>.cls-1{fill:#c02134;}.cls-2{fill:#fcd800;}.cls-3,.cls-4{fill:#222f63;}.cls-4{stroke:#222f63;stroke-miterlimit:10;}.cls-5{fill:#568a9b;}.cls-6{fill:#658891;}.cls-7{font-size:60px;fill:#231f20;font-family:MyriadPro-Regular, Myriad Pro;}.cls-8{letter-spacing:0.01em;}.cls-9{letter-spacing:-0.03em;}.cls-10{letter-spacing:-0.01em;}.cls-11{letter-spacing:0em;}</style></defs><title>Artboard 1</title><path class="cls-1" d="M568.31,121C509,38,400,8.28,307.19,50.27,257.16,72.9,220.9,109.63,198.76,160c-16.36,37.24-21.12,76.22-15.39,116.24a207.26,207.26,0,0,0,37,92.26c3.37,4.73,4.91,5.15,8.23-.09,8.73-13.76,18.05-27.14,27.07-40.71,7.36-11.07,7.33-11.11,16.77-2.26,2.53,2.37,5.2,5.91,8.53,1.66,7.66-9.79,17-18.25,23-29.31-9.65-5.66-9.2-16.47-12.55-25.22-4.72-12.3-3.52-25.41-3.74-38.28-.17-5.51-.24-11-.58-16.53-.09-1.43-.82-2.84.59-3.93,5.9-4.56,4.28-9.73,1.25-15-1.57-2.73-2-5.86-.34-8.27,1.94-2.85,4.91.54,6.53.24,6.79-1.27,8.05-7.8,10-13.27.56-1.56.21-3.46.14-5.21-.09-2.3,1.06-3.68,2.85-5,5.37-3.92,5.32-4,4.62-11.7,4.8,1.52,8.25,6.23,13.79,5.58l-.05-.05c1.72-5.87,4.15-9.33,11.08-12.09,4.6-1.84,9.49-4.53,14.8-6.41,11.09-3.92,22.12-6.7,33.94-6.32,8.41.28,16.88-.49,25.23.23,10.16.86,20,3.95,30.43,3.88,5.67,0,2.43,6.5,3.33,10a104.91,104.91,0,0,1,35,30.39,7.8,7.8,0,0,0,3.94,3.15,33.31,33.31,0,0,0,5.52-2.42C516,164.23,542,146.69,568.27,129.39,573.13,126.18,570.37,123.88,568.31,121ZM199.68,317.33c-3.27-4.53-3.81-8.94,0-13.76Zm87.44-25.87c0,5.56,3.79,10.51,2,16.38-.45,1.5-1.09,2.83-2.75,2.78-1.92-.06-2-1.76-2-3.17-.05-5.28,0-10.55,0-15.83Zm9.11-110.27c-.34-.16-.41-.91-.6-1.4.49-.19,1.1-.65,1.43-.5s.42.91.62,1.4C297.18,180.88,296.57,181.34,296.23,181.19Z"/><path class="cls-2" d="M445.36,150.5a104.91,104.91,0,0,1,35,30.39,7.8,7.8,0,0,0,3.94,3.15c5.3,12.71,12.34,24.76,14.92,38.53,4.59,24.56,3.09,48.28-9.56,70.53-8.42-7.83-17.08-15.45-25.21-23.6-17-17.05-33.76-34.4-50.67-51.57-1.47-1.49-3.22-4.08-5.49-.68-10,6.9-17.49,16.54-26.24,24.82-2.08,2-3.9,4.21-6,6.15-9.92,9.18-10.09,9.32-20.07.33-4.36-3.93-6.43-3.21-10,1.35-12.17,15.33-25,30.11-37.61,45.14a6.68,6.68,0,0,1-4.24,2.76c-9.65-5.65-9.2-16.46-12.55-25.21-4.72-12.3-3.52-25.41-3.74-38.28,3.56-1,2.57-4,2.95-6.43,2-12.82,4.29-25.07,12-36.54,7.26-10.76,15.51-20.42,23.88-30.12l-.06-.05c3.27-1.84,6.74-3.4,9.77-5.57A86,86,0,0,1,379.56,140C402.29,138,424.63,139.5,445.36,150.5Z"/><path class="cls-3" d="M543.46,399.24c-32.22,32.4-71.33,51-117.81,58.84,6-18.08,11.61-35,17.24-51.87.55-1.65,1.56-3.25,1.71-4.92,2.16-24.49,19.7-33.75,39.71-41.29,9.49-3.57,18.26-9,27.36-13.63,5.51-.84,3.27-5.2,3.61-8.25,1.15-10.42-2.94-21.53,3.75-31.16,2.62-3.77,3.2-7.61,3.44-12,.38-7,3.32-12.59,11-14.14,0,0,.21.25.2.25-2,8.68,3.53,9.45,9.87,9.31,14.26,9,16.53,24.35,20.73,38.7,0,4,.15,8.06,0,12.08-.17,4.28,1.85,5.72,5.82,5.09l1.22,2q.27,8.13.55,16.27l.08.07-1.37.14.82,1.06a23,23,0,0,1-6.56,8.9l-5.78,1.58-.75-.4.73.42c-2,5.08-6.05,8.9-10.26,11.57C544,390.82,542.63,394.19,543.46,399.24Z"/><path class="cls-4" d="M477.07,289.42c-10-11.3-21.29-21.49-31.79-32.38q-11.07-11.48-21.73-23.34c-1.79-2-6.05-3.72-9.11-5.84-1.91-1.32-5.39-.84-5.79,3-.33,3.13-2.34,3.68-4.9,3.62-2.54,9.29-6.12,18.3-7.47,27.9-1.79,4.46,4.3,11.15-3.92,13.78l.18,0c1,8.84-.59,16.9-6.29,23.75a7.21,7.21,0,0,1,.52,2.93c1.72.48,2.68,1.47.75,4.22-4.35,6.19-.69,11.19,2.78,15.61,7.67,9.78,6.71,13.28.88,23.94-6.08,11.12-10.8,23.46-8.78,36.93.33,2.18,1.1,4,3.42,4.48,3.17.67,3.59-2.2,4.87-4,2.6-3.64,1-11.46,9.29-9.45.24-7.87,1.79-14.89,11-16.91,0,0,.05-.14.05-.14-1-2.79.3-3.87,2.92-3.94.57-7.46-2.54-16.21,9.16-19.12,2.8-.7,2.41-8.91,8.88-8.22l.45-.35c-3.24-8.76.46-12.64,11.08-14.65,8.75-1.66,17.65-2.86,26.23-5.93,4.88-1.74,10.81-.55,16.27-.67l4.76-.58c.05-2.25.11-4.5.16-6.76C483.65,299.32,481.14,294,477.07,289.42Zm-90.29,10.5c1.75,0,1.75,0,1.75,1.75Zm44.79-41.19c-2.56.09-3.68-1.27-3.51-3.72.14-2.11,1.5-2.92,3.48-2.87s3.08,1.21,3.1,3.26S433.68,258.65,431.57,258.73Zm28,28c-2.55.09-3.68-1.27-3.51-3.72.14-2.11,1.5-2.92,3.48-2.87s3.08,1.21,3.1,3.26S461.68,286.65,459.57,286.73Z"/><path class="cls-4" d="M386.78,299.92l1.75,1.75C388.53,299.92,388.53,299.92,386.78,299.92Z"/><path class="cls-4" d="M385.17,301.16l-.14.07v1.27a14.08,14.08,0,0,1,1.74.35,7.21,7.21,0,0,0-.52-2.93C385.9,300.34,385.55,300.75,385.17,301.16Z"/><path class="cls-4" d="M414.05,353.6H414a.07.07,0,0,1,0,0Z"/><path class="cls-4" d="M400.05,374.6H400v.07Z"/><path class="cls-4" d="M384.45,302.42l.58.08v-1.27A1,1,0,0,0,384.45,302.42Z"/><path class="cls-4" d="M491,297.27v.05H491Z"/><path class="cls-4" d="M491,297.31c-7.37,2-9.88-3.29-14-7.89-10-11.3-21.29-21.49-31.79-32.38q-11.07-11.48-21.73-23.34c-1.79-2-6.05-3.72-9.11-5.84-1.91-1.32-5.39-.84-5.79,3-.33,3.13-2.34,3.68-4.9,3.62l4.5-17.21c2.27-3.4,4-.81,5.49.68,16.91,17.17,33.64,34.52,50.67,51.57,8.13,8.15,16.79,15.77,25.21,23.6C490.09,294.48,490.56,295.9,491,297.31Z"/><path class="cls-3" d="M386.78,303.42c0-.19,0-.38,0-.57a14.08,14.08,0,0,0-1.74-.35v.92Z"/><path class="cls-3" d="M400.05,374.6c-8.38-2.07-6.76,5.79-9.36,9.44-1.28,1.79-1.7,4.66-4.87,4-2.32-.49-3.09-2.3-3.42-4.48-2-13.47,2.7-25.81,8.78-36.93C397,336,398,332.46,390.3,322.68c-3.47-4.42-7.13-9.42-2.78-15.61,1.93-2.75,1-3.74-.75-4.22,0,.19,0,.38,0,.57H385v-.92l-.58-.08c-1.22,6.54-7.49,12.61.31,19.69,10.1,9.17,9.68,9.63,3.55,22.05-1.16,2.35-2.19,4.76-3.44,7-9,16.57-2.45,34-3.7,51.08C387.77,392.89,395.39,384.72,400.05,374.6Z"/><path class="cls-3" d="M533.51,280.79c-7.72,1.55-10.66,7.18-11,14.14-.24,4.42-.82,8.26-3.44,12-6.69,9.63-2.6,20.74-3.75,31.16-.34,3.05,1.9,7.41-3.61,8.25-1.51-25.49,2.38-49.89,15.23-72.51A14.77,14.77,0,0,1,533.51,280.79Z"/><path class="cls-3" d="M432.47,325.91c-3.24-8.76.46-12.64,11.08-14.65,8.75-1.66,17.65-2.86,26.23-5.93,4.88-1.74,10.81-.55,16.27-.67-10.72,4.26-22.05,6.34-33.23,8.88C444.55,315.43,436.76,317.67,432.47,325.91Z"/><path class="cls-3" d="M414,353.65c.6-7.48-2.55-16.26,9.17-19.17,2.8-.7,2.41-8.91,8.88-8.22-1,4.78-5.11,7.59-7.35,11.57l-2,1.92C421,345.17,417.11,349.17,414,353.65Z"/><path class="cls-3" d="M543.46,399.24c-.83-5.05.56-8.42,5.35-11.45,4.21-2.67,8.23-6.49,10.26-11.57l0,0,5.78-1.58C558.25,383.28,552.43,392.63,543.46,399.24Z"/><path class="cls-3" d="M386.25,299.92a6,6,0,0,0-.6-1l-.48,2.26C385.55,300.75,385.9,300.34,386.25,299.92Z"/><path class="cls-3" d="M392.54,276.17c-3.82,7.13-5.26,15-6.89,22.73a6,6,0,0,1,.6,1C392,293.07,393.57,285,392.54,276.17Z"/><path class="cls-3" d="M400,374.66c.24-7.89,1.77-15,11-17C408.49,364.1,404.33,369.44,400,374.66Z"/><path class="cls-3" d="M570.13,346.22c-4,.63-6-.81-5.82-5.09.15-4,0-8.05,0-12.08C567.33,334.41,568.74,340.31,570.13,346.22Z"/><path class="cls-3" d="M571.9,364.45q-.27-8.15-.55-16.27C575.9,353.45,579.59,358.76,571.9,364.45Z"/><path class="cls-3" d="M543.58,290.35c-6.34.14-11.83-.63-9.87-9.31C537.79,283.31,540.81,286.7,543.58,290.35Z"/><path class="cls-3" d="M396.28,262.36c-1.79,4.46,4.3,11.15-3.92,13.78A31,31,0,0,1,396.28,262.36Z"/><path class="cls-3" d="M490.81,304.08c.05-2.27.11-4.54.16-6.81,1.57,1.5,4.18,2.86,4.4,4.54S492.71,303.89,490.81,304.08Z"/><path class="cls-3" d="M411.06,357.54c-1-2.82.32-3.9,3-3.94C413.57,355.3,412.85,356.83,411.06,357.54Z"/><path class="cls-5" d="M422.65,339.75l2-1.92Z"/><path class="cls-3" d="M571.43,365.72l-.82-1.06,1.37-.14A1.08,1.08,0,0,1,571.43,365.72Z"/><path class="cls-1" d="M445.36,150.5c-20.73-11-43.07-12.55-65.8-10.54a86,86,0,0,0-43.25,15.64c-3,2.17-6.5,3.73-9.77,5.57,1.73-5.87,4.16-9.33,11.09-12.09,4.6-1.84,9.49-4.53,14.8-6.41,11.09-3.92,22.12-6.7,33.94-6.32,8.41.28,16.88-.49,25.23.23,10.16.86,20,3.95,30.43,3.88C447.7,140.42,444.46,147,445.36,150.5Z"/><path class="cls-1" d="M326.6,161.22c-8.37,9.7-16.62,19.36-23.88,30.12-7.72,11.47-10,23.72-12,36.54-.38,2.47.61,5.46-2.95,6.43-.17-5.51-.24-11-.58-16.53-.09-1.43-.82-2.84.59-3.93,5.9-4.56,4.28-9.73,1.25-15-1.57-2.73-2-5.86-.34-8.27,1.94-2.85,4.91.54,6.53.24,6.79-1.27,8.05-7.8,10-13.27.56-1.56.21-3.46.14-5.21-.09-2.3,1.06-3.68,2.85-5,5.37-3.92,5.32-4,4.62-11.7C317.61,157.16,321.06,161.87,326.6,161.22Z"/><path class="cls-1" d="M287.12,291.46c0,5.56,3.79,10.51,2,16.38-.45,1.5-1.09,2.83-2.75,2.78-1.92-.06-2-1.76-2-3.17-.05-5.28,0-10.55,0-15.83Z"/><path class="cls-1" d="M199.68,317.33c-3.27-4.53-3.81-8.94,0-13.76Z"/><path class="cls-1" d="M297.68,180.69c-.5.19-1.11.65-1.45.5s-.41-.91-.6-1.4c.49-.19,1.1-.65,1.43-.5S297.48,180.2,297.68,180.69Z"/><path class="cls-6" d="M559.07,376.22l-.73-.42.75.4Z"/><path class="cls-3" d="M434.64,255.4c0,2-1,3.25-3.07,3.33-2.55.09-3.68-1.27-3.51-3.72.14-2.11,1.5-2.92,3.48-2.87S434.62,253.35,434.64,255.4Z"/><path class="cls-3" d="M462.64,283.4c0,2-1,3.25-3.07,3.33-2.55.09-3.68-1.27-3.51-3.72.14-2.11,1.5-2.92,3.48-2.87S462.62,281.35,462.64,283.4Z"/><text class="cls-7" transform="translate(139.14 561.9)"><tspan class="cls-8">M</tspan><tspan x="48.66" y="0">y</tspan><tspan class="cls-9" x="76.92" y="0">F</tspan><tspan x="104.58" y="0">itness</tspan><tspan class="cls-10" x="249.36" y="0">C</tspan><tspan x="283.5" y="0">olo</tspan><tspan class="cls-11" x="363.54" y="0">r</tspan><tspan x="382.86" y="0">ado</tspan></text></svg>